<svg width="32" height="32" viewBox="0 0 32 32" fill="none" xmlns="http://www.w3.org/2000/svg">
<path d="M21.3333 9.33334H21.3467" stroke="white" stroke-width="2.66667" stroke-linecap="round" stroke-linejoin="round"/>
<path d="M4.53334 24H16C18.829 24 21.5421 22.8762 23.5425 20.8758C25.5429 18.8754 26.6667 16.1623 26.6667 13.3333V9.33334C26.6697 8.19723 26.3098 7.08983 25.6395 6.17253C24.9691 5.25523 24.0234 4.57596 22.9401 4.23369C21.8567 3.89143 20.6924 3.90406 19.6167 4.26974C18.5411 4.63543 17.6103 5.33505 16.96 6.26668L2.66667 26.6667" stroke="white" stroke-width="2.66667" stroke-linecap="round" stroke-linejoin="round"/>
<path d="M26.6667 9.33334L29.3333 10L26.6667 10.6667" stroke="white" stroke-width="2.66667" stroke-linecap="round" stroke-linejoin="round"/>
<path d="M13.3333 24V28" stroke="white" stroke-width="2.66667" stroke-linecap="round" stroke-linejoin="round"/>
<path d="M18.6667 23.6667V28" stroke="white" stroke-width="2.66667" stroke-linecap="round" stroke-linejoin="round"/>
<path d="M9.33333 24C10.9775 23.9999 12.5817 23.4933 13.9276 22.5489C15.2736 21.6046 16.2959 20.2686 16.8554 18.7226C17.4149 17.1765 17.4845 15.4957 17.0547 13.9087C16.6249 12.3217 15.7166 10.9057 14.4533 9.85333" stroke="white" stroke-width="2.66667" stroke-linecap="round" stroke-linejoin="round"/>
</svg>
