<svg width="20" height="20" viewBox="0 0 20 20" fill="none" xmlns="http://www.w3.org/2000/svg">
<path d="M4.99998 18.3333C4.55795 18.3333 4.13403 18.1577 3.82147 17.8452C3.50891 17.5326 3.33331 17.1087 3.33331 16.6667V3.33334C3.33331 2.89131 3.50891 2.46739 3.82147 2.15483C4.13403 1.84227 4.55795 1.66667 4.99998 1.66667H11.6666C11.9304 1.66625 12.1917 1.71801 12.4354 1.81898C12.6791 1.91995 12.9005 2.06814 13.0866 2.25501L16.0766 5.24501C16.264 5.43126 16.4126 5.6528 16.5139 5.89681C16.6152 6.14082 16.6671 6.40248 16.6666 6.66667V16.6667C16.6666 17.1087 16.4911 17.5326 16.1785 17.8452C15.8659 18.1577 15.442 18.3333 15 18.3333H4.99998Z" stroke="#364153" stroke-width="1.66667" stroke-linecap="round" stroke-linejoin="round"/>
<path d="M11.6667 1.66667V5.83334C11.6667 6.05435 11.7545 6.26631 11.9108 6.42259C12.067 6.57887 12.279 6.66667 12.5 6.66667H16.6667" stroke="#364153" stroke-width="1.66667" stroke-linecap="round" stroke-linejoin="round"/>
<path d="M8.33335 7.5H6.66669" stroke="#364153" stroke-width="1.66667" stroke-linecap="round" stroke-linejoin="round"/>
<path d="M13.3334 10.8333H6.66669" stroke="#364153" stroke-width="1.66667" stroke-linecap="round" stroke-linejoin="round"/>
<path d="M13.3334 14.1667H6.66669" stroke="#364153" stroke-width="1.66667" stroke-linecap="round" stroke-linejoin="round"/>
</svg>
