<svg width="20" height="20" viewBox="0 0 20 20" fill="none" xmlns="http://www.w3.org/2000/svg">
<g clip-path="url(#clip0_43_218)">
<path d="M1.66669 18.3333L13.3334 6.66666" stroke="#364153" stroke-width="1.66667" stroke-linecap="round" stroke-linejoin="round"/>
<path d="M2.89166 10.4417L4.16666 9.16666L5.44166 10.4417C5.98616 10.9883 6.29188 11.7284 6.29188 12.5C6.29188 13.2716 5.98616 14.0117 5.44166 14.5583L4.16666 15.8333L2.89166 14.5583C2.34716 14.0117 2.04144 13.2716 2.04144 12.5C2.04144 11.7284 2.34716 10.9883 2.89166 10.4417Z" stroke="#364153" stroke-width="1.66667" stroke-linecap="round" stroke-linejoin="round"/>
<path d="M6.22497 7.10834L7.49997 5.83334L8.77497 7.10834C9.31947 7.65498 9.62519 8.39511 9.62519 9.16667C9.62519 9.93823 9.31947 10.6784 8.77497 11.225L7.49997 12.5L6.22497 11.225C5.68047 10.6784 5.37476 9.93823 5.37476 9.16667C5.37476 8.39511 5.68047 7.65498 6.22497 7.10834Z" stroke="#364153" stroke-width="1.66667" stroke-linecap="round" stroke-linejoin="round"/>
<path d="M9.55835 3.775L10.8333 2.5L12.1083 3.775C12.6528 4.32165 12.9586 5.06177 12.9586 5.83333C12.9586 6.60489 12.6528 7.34502 12.1083 7.89167L10.8333 9.16667L9.55835 7.89167C9.01385 7.34502 8.70813 6.60489 8.70813 5.83333C8.70813 5.06177 9.01385 4.32165 9.55835 3.775Z" stroke="#364153" stroke-width="1.66667" stroke-linecap="round" stroke-linejoin="round"/>
<path d="M16.6666 1.66666H18.3333V3.33333C18.3333 4.21739 17.9821 5.06523 17.357 5.69035C16.7319 6.31547 15.884 6.66666 15 6.66666H13.3333V5C13.3333 4.11594 13.6845 3.2681 14.3096 2.64297C14.9347 2.01785 15.7826 1.66666 16.6666 1.66666Z" stroke="#364153" stroke-width="1.66667" stroke-linecap="round" stroke-linejoin="round"/>
<path d="M9.55835 14.5583L10.8334 15.8333L9.55835 17.1083C9.01171 17.6528 8.27158 17.9586 7.50002 17.9586C6.72846 17.9586 5.98833 17.6528 5.44169 17.1083L4.16669 15.8333L5.44169 14.5583C5.98833 14.0138 6.72846 13.7081 7.50002 13.7081C8.27158 13.7081 9.01171 14.0138 9.55835 14.5583Z" stroke="#364153" stroke-width="1.66667" stroke-linecap="round" stroke-linejoin="round"/>
<path d="M12.8917 11.225L14.1667 12.5L12.8917 13.775C12.345 14.3195 11.6049 14.6252 10.8333 14.6252C10.0618 14.6252 9.32165 14.3195 8.775 13.775L7.5 12.5L8.775 11.225C9.32165 10.6805 10.0618 10.3748 10.8333 10.3748C11.6049 10.3748 12.345 10.6805 12.8917 11.225Z" stroke="#364153" stroke-width="1.66667" stroke-linecap="round" stroke-linejoin="round"/>
<path d="M16.225 7.89167L17.5 9.16667L16.225 10.4417C15.6783 10.9862 14.9382 11.2919 14.1666 11.2919C13.3951 11.2919 12.655 10.9862 12.1083 10.4417L10.8333 9.16667L12.1083 7.89167C12.655 7.34717 13.3951 7.04145 14.1666 7.04145C14.9382 7.04145 15.6783 7.34717 16.225 7.89167Z" stroke="#364153" stroke-width="1.66667" stroke-linecap="round" stroke-linejoin="round"/>
</g>
<defs>
<clipPath id="clip0_43_218">
<rect width="20" height="20" fill="white"/>
</clipPath>
</defs>
</svg>
