<svg width="20" height="20" viewBox="0 0 20 20" fill="none" xmlns="http://www.w3.org/2000/svg">
<path d="M4.99998 18.3333C4.55795 18.3333 4.13403 18.1577 3.82147 17.8452C3.50891 17.5326 3.33331 17.1087 3.33331 16.6667V3.33333C3.33331 2.89131 3.50891 2.46738 3.82147 2.15482C4.13403 1.84226 4.55795 1.66667 4.99998 1.66667H11.6666C11.9304 1.66624 12.1917 1.718 12.4354 1.81897C12.6791 1.91995 12.9005 2.06813 13.0866 2.255L16.0766 5.245C16.264 5.43126 16.4126 5.65279 16.5139 5.8968C16.6152 6.14081 16.6671 6.40247 16.6666 6.66667V16.6667C16.6666 17.1087 16.4911 17.5326 16.1785 17.8452C15.8659 18.1577 15.442 18.3333 15 18.3333H4.99998Z" stroke="#364153" stroke-width="1.66667" stroke-linecap="round" stroke-linejoin="round"/>
<path d="M11.6667 1.66666V5.83333C11.6667 6.05434 11.7545 6.26631 11.9108 6.42259C12.067 6.57887 12.279 6.66666 12.5 6.66666H16.6667" stroke="#364153" stroke-width="1.66667" stroke-linecap="round" stroke-linejoin="round"/>
<path d="M10 10V15" stroke="#364153" stroke-width="1.66667" stroke-linecap="round" stroke-linejoin="round"/>
<path d="M12.5 12.5L10 10L7.5 12.5" stroke="#364153" stroke-width="1.66667" stroke-linecap="round" stroke-linejoin="round"/>
</svg>
